<?xml version="1.0" encoding="UTF-8"?>
<svg width="16px" height="18px" viewBox="0 0 16 18" version="1.1" xmlns="http://www.w3.org/2000/svg" xmlns:xlink="http://www.w3.org/1999/xlink">
    <!-- Generator: sketchtool 55.2 (78181) - https://sketchapp.com -->
    <title>A5E26B20-836A-4DAD-99CE-639EA7A51485</title>
    <desc>Created with sketchtool.</desc>
    <g id="Symbols" stroke="none" stroke-width="1" fill="none" fill-rule="evenodd">
        <g id="Icon-/-edit" fill="#BBC4C3" fill-rule="nonzero">
            <path d="M6.36396103,12.7279221 L1.76776695,13.7885822 L2.82842712,9.19238816 L9.54594155,2.47487373 L10.2530483,1.76776695 C11.2293591,0.791456224 12.8122715,0.791456224 13.7885822,1.76776695 C14.764893,2.74407768 14.764893,4.32699013 13.7885822,5.30330086 L13.0814755,6.01040764 L6.36396103,12.7279221 Z M5.65685425,12.0208153 L12.3743687,5.30330086 L10.2530483,3.18198052 L3.53553391,9.89949494 L4.24264069,10.6066017 L9.89949494,4.94974747 L10.6066017,5.65685425 L4.94974747,11.3137085 L5.65685425,12.0208153 Z M13.0814755,4.59619408 C13.6672619,4.01040764 13.6672619,3.06066017 13.0814755,2.47487373 C12.495689,1.8890873 11.5459415,1.8890873 10.9601551,2.47487373 L13.0814755,4.59619408 Z M4.38105851,12.1592331 L3.39711609,11.1752907 L3.10193336,12.4544158 L4.38105851,12.1592331 Z M0,17 L0,16 L16,16 L16,17 L0,17 Z" id="Combined-Shape"></path>
        </g>
    </g>
</svg>