<?xml version="1.0" encoding="UTF-8"?>
<svg width="13px" height="17px" viewBox="0 0 13 17" version="1.1" xmlns="http://www.w3.org/2000/svg" xmlns:xlink="http://www.w3.org/1999/xlink">
    <!-- Generator: sketchtool 55.2 (78181) - https://sketchapp.com -->
    <title>A97BC0BF-18CF-425C-A11E-59994858B69C</title>
    <desc>Created with sketchtool.</desc>
    <g id="Symbols" stroke="none" stroke-width="1" fill="none" fill-rule="evenodd">
        <g id="Icon-/-delete" fill="#BBC4C3" fill-rule="nonzero">
            <path d="M2.5,2 L4,2 L4,0 L9.02418308,0 L9.02418308,2 L11.8918919,2 L13,2 L13,3 L11.8478842,3 L11.2317772,17 L1.66011466,17 L1.04400764,3 L0,3 L0,2 L2.5,2 Z M10.8469164,3 L2.04497551,3 L2.61707488,16 L10.274817,16 L10.8469164,3 Z M6,5 L7,5 L7,14.6956522 L6,14.6956522 L6,5 Z M8,5 L9,5 L9,14.6956522 L8,14.6956522 L8,5 Z M4,5 L5,5 L5,14.6956522 L4,14.6956522 L4,5 Z M5,1.91304348 L8.01323353,1.91304348 L8.01323353,1 L5,1 L5,1.91304348 Z" id="Combined-Shape"></path>
        </g>
    </g>
</svg>